<svg width="24" height="27" viewBox="0 0 24 27" fill="none" xmlns="http://www.w3.org/2000/svg">
<path d="M19.6515 23.1881C20.2044 23.0729 20.5336 22.4944 20.2589 22.001C19.6533 20.9134 18.6993 19.9576 17.4789 19.2292C15.9071 18.2912 13.9812 17.7827 12 17.7827C10.0188 17.7827 8.09295 18.2912 6.52115 19.2292C5.30072 19.9576 4.34669 20.9134 3.74111 22.001C3.46641 22.4944 3.79565 23.0729 4.34847 23.1881C9.39527 24.2399 14.6047 24.2399 19.6515 23.1881Z" fill="#2B2B43"/>
<circle cx="12" cy="10.7827" r="5" fill="#2B2B43"/>
<circle cx="19.3478" cy="9.3913" r="0.391304" fill="#2B2B43" stroke="#2B2B43" stroke-width="0.782609"/>
<path d="M19.3478 7.82619V6.71578C19.3478 5.97681 19.8207 5.32075 20.5217 5.08706V5.08706C21.2228 4.85338 21.6957 4.19732 21.6957 3.45835V3.05674C21.6957 1.80083 20.6775 0.782715 19.4216 0.782715H19.3478C18.0512 0.782715 17 1.83387 17 3.13054V3.13054" stroke="#2B2B43" stroke-width="1.56522"/>
</svg>
