<svg width="11" height="12" viewBox="0 0 11 12" fill="none" xmlns="http://www.w3.org/2000/svg">
<path d="M0.62847 2.77711L2.23992 0.628503H8.68574L10.2972 2.77711M0.62847 2.77711V10.2972C0.62847 10.5821 0.741655 10.8554 0.943126 11.0569C1.1446 11.2583 1.41785 11.3715 1.70277 11.3715H9.22289C9.50781 11.3715 9.78106 11.2583 9.98253 11.0569C10.184 10.8554 10.2972 10.5821 10.2972 10.2972V2.77711M0.62847 2.77711H10.2972M7.61143 4.92571C7.61143 5.49556 7.38506 6.04206 6.98212 6.44501C6.57918 6.84795 6.03268 7.07432 5.46283 7.07432C4.89298 7.07432 4.34648 6.84795 3.94354 6.44501C3.5406 6.04206 3.31423 5.49556 3.31423 4.92571" stroke="#2B2B43" stroke-width="1.16058" stroke-linecap="round" stroke-linejoin="round"/>
</svg>
