<svg width="18" height="18" viewBox="0 0 18 18" fill="none" xmlns="http://www.w3.org/2000/svg">
<path fill-rule="evenodd" clip-rule="evenodd" d="M2.50105 4.87674C1.89473 5.64931 1.89473 6.7793 1.89473 9.03929C1.89473 11.2993 1.89473 12.4293 2.50105 13.2018C2.64158 13.3809 2.80312 13.5424 2.98218 13.683C3.75475 14.2893 4.88474 14.2893 7.14472 14.2893H10.1447C12.4047 14.2893 13.5347 14.2893 14.3073 13.683C14.4863 13.5424 14.6478 13.3809 14.7884 13.2018C15.3947 12.4293 15.3947 11.2993 15.3947 9.03929C15.3947 6.7793 15.3947 5.64931 14.7884 4.87674C14.6478 4.69768 14.4863 4.53615 14.3073 4.39562C13.5347 3.7893 12.4047 3.7893 10.1447 3.7893H7.14472C4.88474 3.7893 3.75475 3.7893 2.98218 4.39562C2.80312 4.53615 2.64158 4.69768 2.50105 4.87674ZM4.67022 6.00115C4.23488 5.71093 3.64669 5.82856 3.35646 6.26391C3.06624 6.69925 3.18387 7.28744 3.61922 7.57767L7.5937 10.2273C8.23014 10.6516 9.05928 10.6516 9.69572 10.2273L13.6702 7.57767C14.1055 7.28744 14.2232 6.69925 13.9329 6.26391C13.6427 5.82856 13.0545 5.71093 12.6192 6.00115L8.64471 8.65081L4.67022 6.00115Z" fill="#2B2B43"/>
</svg>
