<svg width="8" height="9" viewBox="0 0 8 9" fill="none" xmlns="http://www.w3.org/2000/svg">
<path d="M0.363633 1.97974L1.57575 0.363574H6.42424L7.63637 1.97974M0.363633 1.97974V7.63631C0.363633 7.85063 0.448769 8.05616 0.600314 8.20771C0.751859 8.35925 0.957398 8.44439 1.17171 8.44439H6.82828C7.0426 8.44439 7.24814 8.35925 7.39968 8.20771C7.55123 8.05616 7.63637 7.85063 7.63637 7.63631V1.97974M0.363633 1.97974H7.63637M5.61616 3.5959C5.61616 4.02453 5.44589 4.43561 5.1428 4.7387C4.83971 5.04179 4.42863 5.21206 4 5.21206C3.57137 5.21206 3.16029 5.04179 2.8572 4.7387C2.55411 4.43561 2.38384 4.02453 2.38384 3.5959" stroke="#C7C8D2" stroke-width="0.668571" stroke-linecap="round" stroke-linejoin="round"/>
</svg>
