<svg width="16" height="16" viewBox="0 0 16 16" fill="none" xmlns="http://www.w3.org/2000/svg">
<path fill-rule="evenodd" clip-rule="evenodd" d="M9.42406 2.24064L9.42406 2.24067C9.45052 2.50524 9.46375 2.63753 9.4913 2.72294C9.65064 3.21697 10.2147 3.4506 10.6767 3.21394C10.7565 3.17303 10.8594 3.08885 11.0652 2.92049L11.0652 2.92048C11.1742 2.83134 11.2286 2.78678 11.281 2.75532C11.5739 2.57941 11.944 2.59787 12.2179 2.80205C12.2669 2.83856 12.3166 2.88833 12.4162 2.98785L13.0118 3.58349C13.1113 3.68304 13.1611 3.73281 13.1976 3.78179C13.4018 4.05569 13.4202 4.4258 13.2443 4.71866C13.2129 4.77103 13.1683 4.82551 13.0792 4.93447L13.0792 4.93448C12.9108 5.14028 12.8266 5.24319 12.7857 5.32307C12.549 5.78506 12.7826 6.34907 13.2767 6.50842C13.3621 6.53597 13.4944 6.5492 13.759 6.57566L13.759 6.57566C13.899 6.58966 13.9691 6.59667 14.0283 6.61146C14.3598 6.69416 14.6085 6.96892 14.6578 7.30697C14.6666 7.36742 14.6666 7.43781 14.6666 7.57858V8.42101C14.6666 8.5617 14.6666 8.63205 14.6578 8.69246C14.6085 9.03057 14.3598 9.30538 14.0283 9.38806C13.969 9.40284 13.899 9.40984 13.759 9.42384L13.759 9.42384L13.759 9.42384C13.4946 9.45028 13.3624 9.4635 13.2771 9.49101C12.7829 9.65031 12.5492 10.2145 12.786 10.6766C12.8269 10.7564 12.911 10.8592 13.0793 11.0648C13.1683 11.1736 13.2129 11.2281 13.2443 11.2804C13.4203 11.5733 13.4018 11.9435 13.1975 12.2174C13.1611 12.2664 13.1113 12.3161 13.0119 12.4156L12.4161 13.0113C12.3166 13.1108 12.2669 13.1606 12.2179 13.1971C11.944 13.4013 11.5738 13.4197 11.281 13.2438C11.2286 13.2124 11.1742 13.1678 11.0652 13.0787L11.0652 13.0786C10.8594 12.9103 10.7566 12.8261 10.6767 12.7852C10.2147 12.5486 9.65065 12.7822 9.49131 13.2762C9.46377 13.3616 9.45054 13.4939 9.42408 13.7586C9.41006 13.8988 9.40305 13.9688 9.38825 14.0282C9.30554 14.3596 9.03081 14.6082 8.6928 14.6575C8.63233 14.6663 8.56191 14.6663 8.42107 14.6663H7.57878C7.43802 14.6663 7.36764 14.6663 7.30719 14.6575C6.96914 14.6082 6.69437 14.3596 6.61167 14.0281C6.59688 13.9688 6.58988 13.8988 6.57587 13.7587L6.57587 13.7587C6.54942 13.4941 6.53619 13.3619 6.50864 13.2764C6.34929 12.7824 5.78527 12.5488 5.32327 12.7855C5.2434 12.8264 5.1405 12.9106 4.93469 13.0789C4.82573 13.1681 4.77125 13.2127 4.71888 13.2441C4.42602 13.42 4.05591 13.4016 3.78201 13.1974C3.73303 13.1609 3.68325 13.1111 3.58371 13.0116L2.98807 12.4159L2.98806 12.4159C2.88854 12.3164 2.83878 12.2666 2.80227 12.2177C2.59809 11.9438 2.57963 11.5736 2.75554 11.2808C2.787 11.2284 2.83156 11.1739 2.92069 11.065C3.08906 10.8592 3.17324 10.7563 3.21416 10.6765C3.45082 10.2145 3.21719 9.65042 2.72316 9.49108C2.63775 9.46353 2.50547 9.4503 2.2409 9.42385L2.24089 9.42385C2.10083 9.40984 2.0308 9.40284 1.97153 9.38805C1.64006 9.30535 1.39139 9.03058 1.34209 8.69253C1.33327 8.63208 1.33327 8.5617 1.33327 8.42093L1.33327 7.57866C1.33327 7.43781 1.33327 7.36739 1.3421 7.3069C1.39143 6.96891 1.64004 6.69419 1.97146 6.61147C2.03076 6.59667 2.10084 6.58966 2.24098 6.57565C2.50571 6.54918 2.63808 6.53594 2.72354 6.50836C3.21746 6.34898 3.45103 5.78508 3.21448 5.32312C3.17355 5.2432 3.0893 5.14022 2.9208 4.93428L2.9208 4.93428C2.83157 4.82522 2.78696 4.77069 2.75548 4.71827C2.57965 4.42546 2.59811 4.05544 2.8022 3.78157C2.83873 3.73254 2.88855 3.68273 2.98817 3.5831L3.5837 2.98758C3.68325 2.88802 3.73303 2.83825 3.78201 2.80173C4.05591 2.59757 4.42601 2.57912 4.71887 2.75501C4.77124 2.78647 4.82574 2.83106 4.93474 2.92024C5.1405 3.08859 5.24339 3.17277 5.32322 3.21367C5.78526 3.4504 6.34937 3.21673 6.50868 2.72263C6.53621 2.63726 6.54943 2.50504 6.57588 2.24059L6.57588 2.24058L6.57588 2.24057C6.58988 2.10057 6.59688 2.03058 6.61166 1.97133C6.69434 1.63982 6.96915 1.39112 7.30725 1.34183C7.36767 1.33302 7.43802 1.33302 7.57872 1.33302H8.42114C8.56191 1.33302 8.6323 1.33302 8.69275 1.34184C9.0308 1.39115 9.30556 1.63981 9.38826 1.97127C9.40305 2.03054 9.41005 2.10058 9.42406 2.24064ZM7.99997 10.6665C9.47272 10.6665 10.6666 9.47255 10.6666 7.99979C10.6666 6.52703 9.47272 5.33313 7.99997 5.33313C6.52721 5.33313 5.3333 6.52703 5.3333 7.99979C5.3333 9.47255 6.52721 10.6665 7.99997 10.6665Z" fill="#2B2B43"/>
</svg>
